<svg xmlns="http://www.w3.org/2000/svg" width="759.51" height="139.08" viewBox="0 0 759.51 139.08"><path d="M23.34,0H23a23.18,23.18,0,0,0,.25,46.36H23a23.18,23.18,0,0,0,0,46.36A23.18,23.18,0,1,0,46.36,115.9V116a23.18,23.18,0,0,0,46.36-.12V116a23.18,23.18,0,0,0,46.36-.12v-.25a23.19,23.19,0,0,0-23-22.93,23.18,23.18,0,0,0,23-23.18v-.25a23.19,23.19,0,0,0-23-22.93,23.18,23.18,0,0,0,23-23.18v-.25a23.18,23.18,0,0,0-46.36.14v-.14a23.18,23.18,0,0,0-46.36.14v-.14A23.19,23.19,0,0,0,23.34,0ZM710.18,9.91,661.61,125.64h14.6l11.93-29.2H731l11.46,29.2h17.06L711.1,9.91ZM398.45,11V125.64H412.9V56l40,55.68h.31l41-58v72H509V11h-.3L453.28,88.61,398.6,11Zm160.17.16v114.5h14.91l-.3-79.23,81.6,82.76h.46V14.52H640.54l.3,80.42-81.45-83.8Zm-227.5,2.15A53.41,53.41,0,0,0,309,17.9a57.17,57.17,0,0,0-18,12.45,58,58,0,0,0-12.29,18.13,54.93,54.93,0,0,0-4.31,21.67,57.56,57.56,0,0,0,4.31,22.44,56.26,56.26,0,0,0,12.29,18,57.63,57.63,0,0,0,18,12,56.77,56.77,0,0,0,22.13,4.31,55.28,55.28,0,0,0,21.82-4.31,59.35,59.35,0,0,0,18.14-12.14,56.64,56.64,0,0,0,12.45-18.13A55.19,55.19,0,0,0,388,70.15a53.33,53.33,0,0,0-4.45-21.67,56.64,56.64,0,0,0-12.45-18.13A56.68,56.68,0,0,0,352.94,17.9,52,52,0,0,0,331.12,13.29ZM176,14.52V125.64h14.91V76.92h58.25v48.72h14.75V14.52H249.19V62.78H190.94V14.52Zm350.3,0V125.64h14.91V14.52Zm-480,8.8a23.18,23.18,0,0,0,23.24,23h-.25a23.18,23.18,0,0,0-23,23.07v-.14a23.19,23.19,0,0,0-23-22.93A23.18,23.18,0,0,0,46.36,23.32Zm46.36,0a23.18,23.18,0,0,0,23.24,23h-.25a23.18,23.18,0,0,0-23,23.07v-.14a23.19,23.19,0,0,0-23-22.93A23.18,23.18,0,0,0,92.72,23.32Zm238.4,4.26A39,39,0,0,1,347.25,31,40.51,40.51,0,0,1,360.47,40a42.61,42.61,0,0,1,8.92,13.68,43.86,43.86,0,0,1,0,33,45,45,0,0,1-8.76,13.37,41.23,41.23,0,0,1-45.5,9.23,42.63,42.63,0,0,1-13.21-9.23A43.44,43.44,0,0,1,293,86.75a42,42,0,0,1-3.23-16.44,43.91,43.91,0,0,1,3.08-16.45,40.81,40.81,0,0,1,8.76-13.68A42.82,42.82,0,0,1,314.83,31,39.37,39.37,0,0,1,331.12,27.58ZM710,43l15.93,40.56h-32.5ZM46.36,69.68a23.18,23.18,0,0,0,23,23,23.17,23.17,0,0,0-23,23.07v-.14a23.19,23.19,0,0,0-23-22.93A23.18,23.18,0,0,0,46.36,69.68Zm46.36,0a23.17,23.17,0,0,0,23,23,23.17,23.17,0,0,0-23,23.07v-.14a23.19,23.19,0,0,0-23-22.93A23.18,23.18,0,0,0,92.72,69.68Z" transform="translate(0 0)" fill="#1b1e22"/></svg>