<svg xmlns="http://www.w3.org/2000/svg" width="747.24" height="136.83" viewBox="0 0 747.24 136.83"><path d="M23,0h-.35a22.81,22.81,0,0,0,.25,45.61h-.25a22.81,22.81,0,1,0,23,22.93,22.81,22.81,0,0,0,45.61-.12v-.25a22.81,22.81,0,0,0-22.7-22.56A22.81,22.81,0,0,0,91.22,22.8v-.24a22.81,22.81,0,0,0-45.61.24v-.24A22.8,22.8,0,0,0,23,0Zm91.22,0h-.35a22.81,22.81,0,0,0,.25,45.61h-.25a22.81,22.81,0,1,0,23,22.81v-.25a22.81,22.81,0,0,0-22.7-22.56,22.81,22.81,0,0,0,22.7-22.81v-.24A22.8,22.8,0,0,0,114.19,0ZM698.7,9.75,650.92,123.61h14.37L677,94.88h42.15l11.28,28.73h16.78L699.61,9.75ZM392,10.8V123.61h14.21V55.06l39.32,54.79h.3l40.37-57.08v70.84h14.52V10.8h-.3L446,87.17,392.16,10.8ZM549.6,11V123.61h14.66L564,45.66l80.28,81.43h.46V14.28H630.19l.29,79.12L550.35,11ZM325.77,13.07A52.63,52.63,0,0,0,304,17.61,56.13,56.13,0,0,0,286.3,29.86,57.19,57.19,0,0,0,274.2,47.7,54.05,54.05,0,0,0,270,69,56.78,56.78,0,0,0,274.2,91.1a55.41,55.41,0,0,0,12.1,17.69A56.62,56.62,0,0,0,304,120.58a55.82,55.82,0,0,0,21.78,4.24,54.26,54.26,0,0,0,21.47-4.24,58.3,58.3,0,0,0,17.84-11.94A55.81,55.81,0,0,0,377.33,90.8,54.33,54.33,0,0,0,381.71,69a52.45,52.45,0,0,0-4.38-21.32,55.81,55.81,0,0,0-12.25-17.84,55.65,55.65,0,0,0-17.84-12.25A51.17,51.17,0,0,0,325.77,13.07ZM173.18,14.28V123.61h14.67V75.67h57.31v47.94h14.52V14.28H245.16V61.76H187.85V14.28Zm344.65,0V123.61H532.5V14.28ZM45.61,22.93A22.81,22.81,0,0,0,68.48,45.61h-.25A22.81,22.81,0,0,0,45.61,68.42v-.25a22.81,22.81,0,0,0-22.7-22.56A22.8,22.8,0,0,0,45.61,22.93Zm280.16,4.2a38.27,38.27,0,0,1,15.87,3.33,40,40,0,0,1,13,8.92,42.06,42.06,0,0,1,8.77,13.46A41.28,41.28,0,0,1,366.59,69a41.67,41.67,0,0,1-3.17,16.33,44.43,44.43,0,0,1-8.62,13.16A40.56,40.56,0,0,1,310,107.58a42,42,0,0,1-13-9.07,42.82,42.82,0,0,1-8.77-13.16,41.29,41.29,0,0,1-3.18-16.18,43.11,43.11,0,0,1,3-16.18,40,40,0,0,1,8.61-13.46,42,42,0,0,1,13-9.07A38.64,38.64,0,0,1,325.77,27.13ZM698.52,42.28l15.67,39.9h-32ZM22.62,91.22a22.81,22.81,0,1,0,23,22.93A22.81,22.81,0,0,0,91.22,114v-.25a22.81,22.81,0,0,0-45.61.25v-.25A22.81,22.81,0,0,0,22.62,91.22Zm91.22,0a22.81,22.81,0,1,0,23,22.81v-.25A22.81,22.81,0,0,0,113.84,91.22Z" transform="translate(0 0)" fill="#ffce1f"/></svg>