<?xml version="1.0" encoding="UTF-8"?>
<svg width="222.25mm" height="222.25mm" version="1.1" viewBox="0 0 222.25 222.25" xmlns="http://www.w3.org/2000/svg" xmlns:cc="http://creativecommons.org/ns#" xmlns:dc="http://purl.org/dc/elements/1.1/" xmlns:rdf="http://www.w3.org/1999/02/22-rdf-syntax-ns#">
 <metadata>
  <rdf:RDF>
   <cc:Work rdf:about="">
    <dc:format>image/svg+xml</dc:format>
    <dc:type rdf:resource="http://purl.org/dc/dcmitype/StillImage"/>
    <dc:title/>
   </cc:Work>
  </rdf:RDF>
 </metadata>
 <g transform="translate(-58.208 -34.018)">
  <path d="m95.212 34.018a37.042 37.042 0 0 0-0.26355 1e-3 37.042 37.042 0 0 0-36.74 37.241 37.042 37.042 0 0 0 37.141 36.841 37.042 37.042 0 0 0 36.941-37.042l-2e-3 -0.40153a37.042 37.042 0 0 0-37.077-36.64zm37.079 37.042a37.042 37.042 0 0 0 5.2e-4 0.2005 37.042 37.042 0 0 0 37.141 36.841 37.042 37.042 0 0 0 36.941-37.042l-2e-3 -0.40153a37.042 37.042 0 0 0-37.341-36.639 37.042 37.042 0 0 0-36.74 37.041zm74.083 0a37.042 37.042 0 0 0 5.2e-4 0.2005 37.042 37.042 0 0 0 37.141 36.841 37.042 37.042 0 0 0 36.941-37.042l-2e-3 -0.40153a37.042 37.042 0 0 0-37.341-36.639 37.042 37.042 0 0 0-36.74 37.041zm-111.16 37.042a37.042 37.042 0 0 0-0.26355 1e-3 37.042 37.042 0 0 0-36.74 37.241 37.042 37.042 0 0 0 37.141 36.841 37.042 37.042 0 0 0 36.941-37.042l-2e-3 -0.40153a37.042 37.042 0 0 0-37.077-36.64zm37.079 37.042a37.042 37.042 0 0 0 5.2e-4 0.2005 37.042 37.042 0 0 0 37.141 36.841 37.042 37.042 0 0 0 36.941-37.042l-2e-3 -0.40153a37.042 37.042 0 0 0-37.341-36.639 37.042 37.042 0 0 0-36.74 37.041zm74.083 0a37.042 37.042 0 0 0 5.2e-4 0.2005 37.042 37.042 0 0 0 37.141 36.841 37.042 37.042 0 0 0 36.941-37.042l-2e-3 -0.40153a37.042 37.042 0 0 0-37.341-36.639 37.042 37.042 0 0 0-36.74 37.041zm-111.16 37.042a37.042 37.042 0 0 0-0.26355 1e-3 37.042 37.042 0 0 0-36.74 37.241 37.042 37.042 0 0 0 37.141 36.841 37.042 37.042 0 0 0 36.941-37.042l-2e-3 -0.40153a37.042 37.042 0 0 0-37.077-36.64zm37.079 37.042a37.042 37.042 0 0 0 5.2e-4 0.2005 37.042 37.042 0 0 0 37.141 36.841 37.042 37.042 0 0 0 36.941-37.042l-2e-3 -0.40153a37.042 37.042 0 0 0-37.341-36.639 37.042 37.042 0 0 0-36.74 37.041zm74.083 0a37.042 37.042 0 0 0 5.2e-4 0.2005 37.042 37.042 0 0 0 37.141 36.841 37.042 37.042 0 0 0 36.941-37.042l-2e-3 -0.40153a37.042 37.042 0 0 0-37.341-36.639 37.042 37.042 0 0 0-36.74 37.041z" fill="#ffce1f"/>
 </g>
</svg>
