<?xml version="1.0" encoding="UTF-8"?>
<svg width="263.61mm" height="48.271mm" version="1.1" viewBox="0 0 263.61 48.271" xmlns="http://www.w3.org/2000/svg" xmlns:cc="http://creativecommons.org/ns#" xmlns:dc="http://purl.org/dc/elements/1.1/" xmlns:rdf="http://www.w3.org/1999/02/22-rdf-syntax-ns#">
 <metadata>
  <rdf:RDF>
   <cc:Work rdf:about="">
    <dc:format>image/svg+xml</dc:format>
    <dc:type rdf:resource="http://purl.org/dc/dcmitype/StillImage"/>
    <dc:title/>
   </cc:Work>
  </rdf:RDF>
 </metadata>
 <g transform="translate(-99.737 -170.92)">
  <path transform="matrix(.26458 0 0 .26458 99.737 170.92)" d="m30.623 0a30.407 30.407 0 0 0-0.46289 0.0019531 30.407 30.407 0 0 0-30.16 30.57 30.407 30.407 0 0 0 30.49 30.242 30.407 30.407 0 0 0-0.33008 0 30.407 30.407 0 0 0-30.16 30.57 30.407 30.407 0 0 0 30.49 30.242 30.407 30.407 0 0 0 30.324-30.242 30.407 30.407 0 0 0 30.488 30.242 30.407 30.407 0 0 0 30.324-30.406l-0.00195-0.33008a30.407 30.407 0 0 0-30.27-30.076 30.407 30.407 0 0 0 30.271-30.408l-0.00195-0.32812a30.407 30.407 0 0 0-30.652-30.076 30.407 30.407 0 0 0-30.158 30.404l-0.001953-0.32812a30.407 30.407 0 0 0-30.189-30.078zm121.63 0a30.407 30.407 0 0 0-0.46289 0.0019531 30.407 30.407 0 0 0-30.158 30.57 30.407 30.407 0 0 0 30.488 30.242 30.407 30.407 0 0 0-0.33008 0 30.407 30.407 0 0 0-30.158 30.57 30.407 30.407 0 0 0 30.488 30.242 30.407 30.407 0 0 0 30.324-30.406l-0.00196-0.33008a30.407 30.407 0 0 0-30.27-30.076 30.407 30.407 0 0 0 30.271-30.408l-0.00196-0.32812a30.407 30.407 0 0 0-30.189-30.078zm779.35 12.994-63.709 151.82h19.152l15.654-38.307h56.199l15.043 38.307h22.379l-63.51-151.82h-1.209zm-408.92 1.4121v150.4h18.953v-91.393l52.418 73.045h0.4043l53.83-76.109v94.457h19.355v-150.4h-0.40234l-72.625 101.83-71.73-101.83h-0.20312zm210.12 0.20117v150.2h19.557l-0.38672-103.94 107.04 108.57h0.60547v-150.4h-19.355l0.38867 105.5-106.84-109.93h-1.0078zm-298.44 2.8223c-10.35 0-20.028 2.0165-29.033 6.0488-8.871 3.8979-16.733 9.3408-23.588 16.33-6.8549 6.8549-12.233 14.786-16.131 23.791-3.7635 8.871-5.6445 18.347-5.6445 28.428 0 10.618 1.8811 20.43 5.6445 29.436 3.8979 9.0054 9.276 16.867 16.131 23.588 6.8549 6.7205 14.717 11.963 23.588 15.727 9.0054 3.7635 18.684 5.6445 29.033 5.6445 10.215 0 19.758-1.8811 28.629-5.6445 9.0054-3.8979 16.934-9.2073 23.789-15.928 6.9893-6.8549 12.434-14.784 16.332-23.789 3.8979-9.0054 5.8457-18.684 5.8457-29.033 0-10.081-1.9478-19.557-5.8457-28.428-3.8979-9.0054-9.3427-16.936-16.332-23.791-6.8549-6.9893-14.784-12.432-23.789-16.33-8.871-4.0323-18.414-6.0488-28.629-6.0488zm-203.45 1.6133v145.77h19.557v-63.912h76.41v63.912h19.355v-145.77h-19.355v63.307h-76.41v-63.307h-19.557zm459.53 0v145.77h19.557v-145.77h-19.557zm-629.62 11.529a30.407 30.407 0 0 0 30.488 30.242 30.407 30.407 0 0 0-0.33008 0 30.407 30.407 0 0 0-30.158 30.406l-0.001953-0.33008a30.407 30.407 0 0 0-30.27-30.076 30.407 30.407 0 0 0 30.271-30.242zm373.54 5.6074c7.5269 0 14.582 1.4785 21.168 4.4355 6.5861 2.8226 12.367 6.7889 17.34 11.896 4.9732 5.1076 8.8708 11.088 11.693 17.943 2.8226 6.7205 4.2344 13.911 4.2344 21.572 0 7.7957-1.4118 15.053-4.2344 21.773-2.8226 6.5861-6.6534 12.433-11.492 17.541-4.8387 5.1076-10.551 9.1406-17.137 12.098-6.5861 2.8226-13.643 4.2324-21.17 4.2324-7.6613 0-14.785-1.4098-21.371-4.2324-6.586-2.957-12.365-6.9901-17.338-12.098-4.9731-5.1076-8.8727-10.955-11.695-17.541-2.8226-6.7205-4.2324-13.911-4.2324-21.572 0-7.6613 1.3431-14.852 4.0312-21.572 2.6882-6.8549 6.519-12.836 11.492-17.943 4.9732-5.1076 10.754-9.1407 17.34-12.098 6.586-2.957 13.71-4.4355 21.371-4.4355zm497 20.193 20.889 53.195h-42.627l21.738-53.195zm-901.2 65.256a30.407 30.407 0 0 0-30.16 30.57 30.407 30.407 0 0 0 30.49 30.242 30.407 30.407 0 0 0 30.324-30.242 30.407 30.407 0 0 0 30.488 30.242 30.407 30.407 0 0 0 30.324-30.406l-0.00195-0.33008a30.407 30.407 0 0 0-30.652-30.076 30.407 30.407 0 0 0-30.158 30.406l-0.001953-0.33008a30.407 30.407 0 0 0-30.652-30.076zm121.63 0a30.407 30.407 0 0 0-30.158 30.57 30.407 30.407 0 0 0 30.488 30.242 30.407 30.407 0 0 0 30.324-30.406l-0.00196-0.33008a30.407 30.407 0 0 0-30.652-30.076z" fill="#ffce1f"/>
 </g>
</svg>
