<?xml version="1.0" encoding="UTF-8"?>
<svg width="222.25mm" height="222.25mm" version="1.1" viewBox="0 0 222.25 222.25" xmlns="http://www.w3.org/2000/svg" xmlns:cc="http://creativecommons.org/ns#" xmlns:dc="http://purl.org/dc/elements/1.1/" xmlns:rdf="http://www.w3.org/1999/02/22-rdf-syntax-ns#">
 <metadata>
  <rdf:RDF>
   <cc:Work rdf:about="">
    <dc:format>image/svg+xml</dc:format>
    <dc:type rdf:resource="http://purl.org/dc/dcmitype/StillImage"/>
    <dc:title/>
   </cc:Work>
  </rdf:RDF>
 </metadata>
 <g transform="translate(-40.821 -34.018)">
  <path transform="matrix(.26458 0 0 .26458 40.821 34.018)" d="m139.86 0a140 140 0 0 0-0.99609 0.0039062 140 140 0 0 0-138.86 140.75 140 140 0 0 0 140.38 139.24 140 140 0 0 0 139.62-140l-0.00781-1.5176a140 140 0 0 0-140.13-138.48zm140.14 140a140 140 0 0 0 0.00195 0.75781 140 140 0 0 0 140.38 139.24 140 140 0 0 0 139.62-140l-0.00781-1.5176a140 140 0 0 0-141.13-138.48 140 140 0 0 0-138.86 140zm280 0a140 140 0 0 0 0.00195 0.75781 140 140 0 0 0 140.38 139.24 140 140 0 0 0 139.62-140l-0.00781-1.5176a140 140 0 0 0-141.13-138.48 140 140 0 0 0-138.86 140zm-420.14 140a140 140 0 0 0-0.99609 0.00391 140 140 0 0 0-138.86 140.75 140 140 0 0 0 140.38 139.24 140 140 0 0 0 139.62-140l-0.00781-1.5176a140 140 0 0 0-140.13-138.48zm140.14 140a140 140 0 0 0 0.00195 0.75781 140 140 0 0 0 140.38 139.24 140 140 0 0 0 139.62-140l-0.00781-1.5176a140 140 0 0 0-141.13-138.48 140 140 0 0 0-138.86 140zm280 0a140 140 0 0 0 0.00195 0.75781 140 140 0 0 0 140.38 139.24 140 140 0 0 0 139.62-140l-0.00781-1.5176a140 140 0 0 0-141.13-138.48 140 140 0 0 0-138.86 140zm-420.14 140a140 140 0 0 0-0.99609 0.00391 140 140 0 0 0-138.86 140.75 140 140 0 0 0 140.38 139.24 140 140 0 0 0 139.62-140l-0.00781-1.5176a140 140 0 0 0-140.13-138.48zm140.14 140a140 140 0 0 0 0.00195 0.75781 140 140 0 0 0 140.38 139.24 140 140 0 0 0 139.62-140l-0.00781-1.5176a140 140 0 0 0-141.13-138.48 140 140 0 0 0-138.86 140zm280 0a140 140 0 0 0 0.00195 0.75781 140 140 0 0 0 140.38 139.24 140 140 0 0 0 139.62-140l-0.00781-1.5176a140 140 0 0 0-141.13-138.48 140 140 0 0 0-138.86 140z" fill="#1b1e22"/>
 </g>
</svg>
