<?xml version="1.0" encoding="UTF-8"?>
<svg width="267.94mm" height="49.064mm" version="1.1" viewBox="0 0 267.94 49.064" xmlns="http://www.w3.org/2000/svg" xmlns:cc="http://creativecommons.org/ns#" xmlns:dc="http://purl.org/dc/elements/1.1/" xmlns:rdf="http://www.w3.org/1999/02/22-rdf-syntax-ns#">
 <metadata>
  <rdf:RDF>
   <cc:Work rdf:about="">
    <dc:format>image/svg+xml</dc:format>
    <dc:type rdf:resource="http://purl.org/dc/dcmitype/StillImage"/>
    <dc:title/>
   </cc:Work>
  </rdf:RDF>
 </metadata>
 <g transform="translate(-97.573 -170.52)">
  <path transform="matrix(.26458 0 0 .26458 97.573 170.52)" d="m31.123 0a30.906 30.906 0 0 0-0.46875 0.0019531 30.906 30.906 0 0 0-30.654 31.072 30.906 30.906 0 0 0 30.99 30.738 30.906 30.906 0 0 0-0.33594 0.001953 30.906 30.906 0 0 0-30.654 31.072 30.906 30.906 0 0 0 30.654 30.738 30.906 30.906 0 0 0-30.654 31.074 30.906 30.906 0 0 0 30.99 30.738 30.906 30.906 0 0 0 30.822-30.906 30.906 30.906 0 0 0 0 0.16797 30.906 30.906 0 0 0 30.99 30.738 30.906 30.906 0 0 0 30.822-30.906 30.906 30.906 0 0 0 0 0.16797 30.906 30.906 0 0 0 30.99 30.738 30.906 30.906 0 0 0 30.822-30.906l-0.00195-0.33594a30.906 30.906 0 0 0-30.688-30.57 30.906 30.906 0 0 0 30.689-30.906l-0.00195-0.33594a30.906 30.906 0 0 0-30.688-30.57 30.906 30.906 0 0 0 30.689-30.906l-0.00195-0.33594a30.906 30.906 0 0 0-31.156-30.568 30.906 30.906 0 0 0-30.654 30.76l-0.00195-0.19141a30.906 30.906 0 0 0-31.156-30.568 30.906 30.906 0 0 0-30.654 30.76l-0.001953-0.19141a30.906 30.906 0 0 0-30.688-30.57zm915.78 13.207-64.756 154.31h19.467l15.912-38.936h57.123l15.289 38.936h22.746l-64.551-154.31h-1.2305zm-415.64 1.4355v152.87h19.264v-92.893l53.279 74.244h0.41016l54.715-77.359v96.008h19.674v-152.87h-0.41016l-73.816 103.5-72.91-103.5h-0.20508zm213.57 0.20508v152.67h19.877l-0.39453-105.64 108.8 110.36h0.61523v-152.88h-19.672l0.39648 107.23-108.6-111.74h-1.0234zm-303.34 2.8691c-10.519 0-20.356 2.048-29.51 6.1465-9.0167 3.9619-17.009 9.4955-23.977 16.6-6.9674 6.9674-12.433 15.028-16.395 24.182-3.8253 9.0167-5.7363 18.648-5.7363 28.895 0 10.793 1.9111 20.765 5.7363 29.918 3.9619 9.1533 9.4271 17.146 16.395 23.977 6.9674 6.8308 14.96 12.159 23.977 15.984 9.1533 3.8253 18.99 5.7383 29.51 5.7383 10.383 0 20.083-1.913 29.1-5.7383 9.1533-3.9619 17.212-9.3586 24.18-16.189 7.1041-6.9674 12.638-15.028 16.6-24.182 3.9619-9.1533 5.9434-18.988 5.9434-29.508 0-10.246-1.9815-19.878-5.9434-28.895-3.9619-9.1533-9.4956-17.214-16.6-24.182-6.9674-7.1041-15.026-12.638-24.18-16.6-9.0167-4.0985-18.717-6.1465-29.1-6.1465zm-206.79 1.6387v148.16h19.879v-64.961h77.666v64.961h19.672v-148.16h-19.672v64.346h-77.666v-64.346h-19.879zm467.07 0v148.16h19.879v-148.16h-19.879zm-639.96 11.732a30.906 30.906 0 0 0 30.99 30.725 30.906 30.906 0 0 0-0.33594 0.001953 30.906 30.906 0 0 0-30.654 30.76l-0.001953-0.19141a30.906 30.906 0 0 0-30.688-30.57 30.906 30.906 0 0 0 30.689-30.725zm61.812 0a30.906 30.906 0 0 0 30.99 30.725 30.906 30.906 0 0 0-0.33593 0.001953 30.906 30.906 0 0 0-30.654 30.76l-0.00195-0.19141a30.906 30.906 0 0 0-30.688-30.57 30.906 30.906 0 0 0 30.689-30.725zm317.87 5.6855c7.6505-1e-6 14.821 1.5042 21.516 4.5098 6.6942 2.8689 12.57 6.8984 17.625 12.09 5.0548 5.1914 9.0158 11.271 11.885 18.238 2.869 6.8308 4.3047 14.141 4.3047 21.928 0 7.9238-1.4357 15.3-4.3047 22.131-2.8689 6.6942-6.7615 12.637-11.68 17.828-4.9182 5.1914-10.726 9.2913-17.42 12.297-6.6942 2.869-13.865 4.3027-21.516 4.3027-7.7871 0-15.028-1.4338-21.723-4.3027-6.6942-3.0056-12.568-7.1054-17.623-12.297-5.0548-5.1914-9.0178-11.134-11.887-17.828-2.869-6.8308-4.3027-14.139-4.3027-21.926 0-7.7871 1.3653-15.097 4.0977-21.928 2.7323-6.9674 6.6268-13.047 11.682-18.238s10.929-9.2894 17.623-12.295c6.6942-3.0056 13.936-4.5098 21.723-4.5098zm505.17 20.525 21.232 54.068h-43.328l22.096-54.068zm-884.84 35.602a30.906 30.906 0 0 0 30.654 30.725 30.906 30.906 0 0 0-30.654 30.76l-0.001953-0.18946a30.906 30.906 0 0 0-30.688-30.57 30.906 30.906 0 0 0 30.689-30.725zm61.812 0a30.906 30.906 0 0 0 30.654 30.725 30.906 30.906 0 0 0-30.654 30.76l-0.00195-0.18946a30.906 30.906 0 0 0-30.688-30.57 30.906 30.906 0 0 0 30.689-30.725z" fill="#1b1e22"/>
 </g>
</svg>
